<?xml version="1.0" encoding="UTF-8" standalone="no"?>
<svg
   xmlns:dc="http://purl.org/dc/elements/1.1/"
   xmlns:cc="http://creativecommons.org/ns#"
   xmlns:rdf="http://www.w3.org/1999/02/22-rdf-syntax-ns#"
   xmlns:svg="http://www.w3.org/2000/svg"
   xmlns="http://www.w3.org/2000/svg"
   xmlns:sodipodi="http://sodipodi.sourceforge.net/DTD/sodipodi-0.dtd"
   xmlns:inkscape="http://www.inkscape.org/namespaces/inkscape"
   viewBox="0 0 512 512"
   id="svg4900"
   version="1.1"
   inkscape:version="0.91+devel r13869"
   sodipodi:docname="free2.svg">
  <metadata
     id="metadata4910">
    <rdf:RDF>
      <cc:Work
         rdf:about="">
        <dc:format>image/svg+xml</dc:format>
        <dc:type
           rdf:resource="http://purl.org/dc/dcmitype/StillImage" />
        <dc:title></dc:title>
      </cc:Work>
    </rdf:RDF>
  </metadata>
  <defs
     id="defs4908" />
  <sodipodi:namedview
     pagecolor="#ffffff"
     bordercolor="#666666"
     borderopacity="1"
     objecttolerance="10"
     gridtolerance="10"
     guidetolerance="10"
     inkscape:pageopacity="0"
     inkscape:pageshadow="2"
     inkscape:window-width="640"
     inkscape:window-height="480"
     id="namedview4906"
     showgrid="false"
     inkscape:zoom="0.38946116"
     inkscape:cx="256"
     inkscape:cy="256"
     inkscape:current-layer="svg4900" />
  <path
     d="M0 0h512v512H0z"
     fill="#000"
     stroke="#fff"
     stroke-width="0"
     id="path4902" />
  <path
     d="M 359.66992 17.626953 C 313.47884 46.291494 271.75176 75.441192 234.48438 104.9707 C 205.98037 84.112703 175.29063 63.4775 142.39062 43.0625 C 167.40886 68.104698 190.24121 90.727164 212.31836 112.59961 A 115.29078 115.29078 0 0 0 165.41211 136.87109 C 127.28481 108.98008 85.75941 81.402091 40.828125 54.1875 C 79.567546 91.491277 114.33455 124.53368 147.5918 156.28711 A 115.29078 115.29078 0 0 0 128.46875 197.88867 C 96.493524 173.85224 61.633667 150.08616 23.828125 126.62695 C 56.986125 159.81695 87.005875 189.45825 115.42188 217.65625 C 70.555875 269.95025 39.029172 323.01895 20.951172 376.37695 C 60.327669 328.64231 95.316171 288.58937 128.82812 252.03711 A 115.29078 115.29078 0 0 0 146.36133 290.57031 C 110.66641 335.98565 84.964305 381.93636 69.326172 428.0957 C 105.13856 384.68119 137.31319 347.65334 168.06055 313.79883 A 115.29078 115.29078 0 0 0 204.96094 333.73242 C 161.27171 385.18554 130.47832 437.3761 112.70312 489.8457 C 159.67612 432.8997 200.43242 386.82025 239.85742 344.65625 C 280.52542 388.11625 322.55992 435.59995 371.04492 494.37695 C 352.76488 440.41941 321.04966 386.75831 276.03906 333.85742 A 115.29078 115.29078 0 0 0 309.9668 316.10938 C 355.25376 362.95385 402.43407 414.26892 456.38672 476.6875 C 432.4205 413.32873 392.35245 350.31217 336.35938 288.22656 A 115.29078 115.29078 0 0 0 351.87695 254.08398 C 395.04545 299.88345 439.39776 349.70371 491.04492 412.3125 C 468.76492 346.5505 426.62222 281.20625 364.82422 217.15625 C 391.76822 190.43025 420.13217 162.41445 451.45117 131.06445 C 415.89128 153.13181 383.00692 175.48253 352.73047 198.07617 A 115.29078 115.29078 0 0 0 327.88086 149.02734 C 352.98799 124.13732 379.09821 98.321832 408.04492 69.345703 C 373.69415 90.66225 341.8112 112.24832 312.39453 134.05859 A 115.29078 115.29078 0 0 0 265.00586 111.70117 C 294.31416 82.587126 325.20575 52.126426 359.66992 17.626953 z M 240.56641 166.58203 A 57.64539 57.64539 0 0 1 264.28906 171.74805 C 255.35957 179.16228 246.70448 186.60548 238.32812 194.0625 C 230.18926 187.1895 221.84887 180.33109 213.31055 173.49023 A 57.64539 57.64539 0 0 1 240.56641 166.58203 z M 286.80273 189.90625 A 57.64539 57.64539 0 0 1 298.21289 224.22656 A 57.64539 57.64539 0 0 1 294.38281 244.70117 C 294.37513 244.70777 294.36705 244.7141 294.35938 244.7207 C 284.03537 234.6967 273.30467 224.713 262.13867 214.75 C 270.28017 206.50098 278.50129 198.21838 286.80273 189.90625 z M 189.86719 196.82031 C 197.3253 204.00601 204.76586 211.18066 212.10938 218.31445 C 203.21108 226.90225 194.6875 235.52976 186.52539 244.16797 A 57.64539 57.64539 0 0 1 182.92188 224.22656 A 57.64539 57.64539 0 0 1 189.86719 196.82031 z M 235.92188 241.53125 C 245.74588 251.18625 255.53013 260.9147 265.32812 270.7207 C 262.08727 273.75102 258.90893 276.78552 255.76172 279.82227 A 57.64539 57.64539 0 0 1 240.56641 281.87305 A 57.64539 57.64539 0 0 1 225.05664 279.68945 C 220.65054 275.42159 216.16795 271.15846 211.57812 266.90625 C 219.70812 258.33825 227.81188 249.90125 235.92188 241.53125 z "
     id="path4904"
     style="fill:#ffffff" />
</svg>
