<?xml version="1.0" encoding="UTF-8" standalone="no"?>
<!-- Created with Inkscape (http://www.inkscape.org/) -->

<svg
   xmlns:dc="http://purl.org/dc/elements/1.1/"
   xmlns:cc="http://creativecommons.org/ns#"
   xmlns:rdf="http://www.w3.org/1999/02/22-rdf-syntax-ns#"
   xmlns:svg="http://www.w3.org/2000/svg"
   xmlns="http://www.w3.org/2000/svg"
   xmlns:sodipodi="http://sodipodi.sourceforge.net/DTD/sodipodi-0.dtd"
   xmlns:inkscape="http://www.inkscape.org/namespaces/inkscape"
   width="9.5255156mm"
   height="9.5234499mm"
   viewBox="0 0 9.5255156 9.5234499"
   id="svg2"
   version="1.1"
   inkscape:version="0.91+devel r13869"
   sodipodi:docname="mission.svg">
  <defs
     id="defs4" />
  <sodipodi:namedview
     id="base"
     pagecolor="#ffffff"
     bordercolor="#666666"
     borderopacity="1.0"
     inkscape:pageopacity="0.0"
     inkscape:pageshadow="2"
     inkscape:zoom="5.8558123"
     inkscape:cx="38.094677"
     inkscape:cy="13.781781"
     inkscape:document-units="mm"
     inkscape:current-layer="layer1"
     showgrid="false"
     inkscape:object-paths="true"
     inkscape:snap-smooth-nodes="true"
     inkscape:snap-intersection-paths="true"
     fit-margin-top="0"
     fit-margin-left="0"
     fit-margin-right="0"
     fit-margin-bottom="0" />
  <metadata
     id="metadata7">
    <rdf:RDF>
      <cc:Work
         rdf:about="">
        <dc:format>image/svg+xml</dc:format>
        <dc:type
           rdf:resource="http://purl.org/dc/dcmitype/StillImage" />
        <dc:title></dc:title>
      </cc:Work>
    </rdf:RDF>
  </metadata>
  <g
     inkscape:label="Layer 1"
     inkscape:groupmode="layer"
     id="layer1"
     transform="translate(-88.27523,-136.84746)">
    <path
       style="color:#000000;font-style:normal;font-variant:normal;font-weight:normal;font-stretch:normal;font-size:medium;line-height:normal;font-family:sans-serif;font-variant-ligatures:none;font-variant-position:normal;font-variant-caps:normal;font-variant-numeric:normal;font-variant-alternates:normal;font-feature-settings:normal;text-indent:0;text-align:start;text-decoration:none;text-decoration-line:none;text-decoration-style:solid;text-decoration-color:#000000;letter-spacing:normal;word-spacing:normal;text-transform:none;direction:ltr;block-progression:tb;writing-mode:lr-tb;baseline-shift:baseline;text-anchor:start;white-space:normal;shape-padding:0;clip-rule:nonzero;display:inline;overflow:visible;visibility:visible;opacity:1;isolation:auto;mix-blend-mode:normal;color-interpolation:sRGB;color-interpolation-filters:linearRGB;solid-color:#000000;solid-opacity:1;fill:#a77337;fill-opacity:1;fill-rule:nonzero;stroke:none;stroke-width:2.66666675;stroke-linecap:butt;stroke-linejoin:miter;stroke-miterlimit:4;stroke-dasharray:none;stroke-dashoffset:0;stroke-opacity:1;color-rendering:auto;image-rendering:auto;shape-rendering:auto;text-rendering:auto;enable-background:accumulate"
       d="m 350.30664,517.21875 0,4.73242 c -6.28728,0.62622 -11.30664,5.64318 -11.93555,11.92969 l -4.73242,0 0,2.67187 4.73242,0 c 0.62891,6.28649 5.64827,11.30152 11.93555,11.92774 l 0,4.73242 2.66602,0 0,-4.73242 c 6.28445,-0.62953 11.30615,-5.6438 11.93554,-11.92774 l 4.73242,0 0,-2.67187 -4.73242,0 c -0.62939,-6.28396 -5.65109,-11.30016 -11.93554,-11.92969 l 0,-4.73242 -2.66602,0 z m 0,7.42187 0,3.37305 c -2.96964,0.54945 -5.32069,2.89854 -5.87305,5.86719 l -3.37304,0 c 0.60088,-4.83478 4.41047,-8.64202 9.24609,-9.24024 z m 2.66602,0.002 c 4.83272,0.60065 8.63762,4.40555 9.23828,9.23828 l -3.36524,0 c -0.55303,-2.96613 -2.90582,-5.31515 -5.87304,-5.86719 l 0,-3.37109 z m -1.33594,5.9082 c 2.59312,0 4.67187,2.07288 4.67187,4.66602 0,2.59309 -2.07875,4.66601 -4.67187,4.66601 -2.59312,0 -4.66602,-2.07292 -4.66602,-4.66601 0,-2.59314 2.0729,-4.66602 4.66602,-4.66602 z m -10.57617,6.00195 3.37304,0 c 0.55248,2.96846 2.90353,5.31582 5.87305,5.86524 l 0,3.375 c -4.83562,-0.59822 -8.64521,-4.40548 -9.24609,-9.24024 z m 17.78515,0 3.36524,0 c -0.60066,4.8327 -4.40556,8.63763 -9.23828,9.23829 l 0,-3.37305 c 2.9671,-0.55201 5.31989,-2.89929 5.87304,-5.86524 z"
       transform="scale(0.26458333)"
       id="path4141"
       inkscape:connector-curvature="0" />
  </g>
</svg>
