<?xml version="1.0" encoding="UTF-8" standalone="no"?>
<svg
   xmlns:dc="http://purl.org/dc/elements/1.1/"
   xmlns:cc="http://creativecommons.org/ns#"
   xmlns:rdf="http://www.w3.org/1999/02/22-rdf-syntax-ns#"
   xmlns:svg="http://www.w3.org/2000/svg"
   xmlns="http://www.w3.org/2000/svg"
   xmlns:sodipodi="http://sodipodi.sourceforge.net/DTD/sodipodi-0.dtd"
   xmlns:inkscape="http://www.inkscape.org/namespaces/inkscape"
   viewBox="0 0 512 512"
   id="svg2"
   version="1.1"
   inkscape:version="0.91+devel r13869"
   sodipodi:docname="virtue.svg">
  <metadata
     id="metadata12">
    <rdf:RDF>
      <cc:Work
         rdf:about="">
        <dc:format>image/svg+xml</dc:format>
        <dc:type
           rdf:resource="http://purl.org/dc/dcmitype/StillImage" />
        <dc:title></dc:title>
      </cc:Work>
    </rdf:RDF>
  </metadata>
  <defs
     id="defs10" />
  <sodipodi:namedview
     pagecolor="#ffffff"
     bordercolor="#666666"
     borderopacity="1"
     objecttolerance="10"
     gridtolerance="10"
     guidetolerance="10"
     inkscape:pageopacity="0"
     inkscape:pageshadow="2"
     inkscape:window-width="640"
     inkscape:window-height="480"
     id="namedview8"
     showgrid="false"
     inkscape:zoom="0.38946116"
     inkscape:cx="256"
     inkscape:cy="256"
     inkscape:current-layer="svg2" />
  <path
     d="M0 0h512v512H0z"
     fill="#000"
     stroke="#fff"
     stroke-width="0"
     id="path4" />
  <path
     id="path4153"
     d="m 256.25,39.969 c 119.515,0 216.094,96.607 216.094,216.124 0,119.517 -96.58,216.094 -216.094,216.094 -119.515,0 -216.813,-96.577 -216.813,-216.094 0,-59.568 24.176,-113.438 63.22,-152.5 7.273,5.113 16.15,8.094 25.718,8.094 24.716,0 44.75,-20.034 44.75,-44.75 0,-3.453 -0.385,-6.804 -1.125,-10.032 C 197.91,46 226.396,39.97 256.25,39.97 Z m 0,-19.313 c -32.78,0 -64.03,6.79 -92.438,19 -8.182,-10.618 -20.994,-17.468 -35.437,-17.468 -24.716,0 -44.78,20.033 -44.78,44.75 0,8.356 2.324,16.18 6.31,22.874 -42.638,42.655 -69.093,101.49 -69.093,166.282 0,129.617 105.823,234.72 235.438,234.72 129.615,-0.002 234.72,-105.103 234.72,-234.72 0,-129.618 -105.105,-235.438 -234.72,-235.438 z"
     style="fill:#ffffff" />
  <path
     id="path4149"
     d="m 256.125,110.905 c 81.2,0 146.78,65.55 146.78,146.75 0,17.833 -3.172,34.924 -8.967,50.72 -5.81,-2.513 -12.237,-3.907 -18.97,-3.907 -26.396,0 -47.78,21.414 -47.78,47.81 0,10.59 3.454,20.362 9.28,28.283 -23.065,15.084 -50.66,23.843 -80.343,23.843 -81.2,0 -147.22,-65.55 -147.22,-146.75 0,-81.2 66.02,-146.75 147.22,-146.75 z m 0,-19.126 c -91.3,0 -165.875,74.575 -165.875,165.876 0,91.3 74.576,165.406 165.875,165.406 35.12,0 67.708,-10.965 94.5,-29.656 7.13,4.23 15.45,6.656 24.344,6.656 26.396,0 47.81,-21.384 47.81,-47.78 0,-12.763 -5.005,-24.366 -13.155,-32.938 7.677,-19.067 11.906,-39.884 11.906,-61.688 0,-91.3 -74.106,-165.875 -165.405,-165.875 z"
     style="fill:#ffffff" />
  <path
     d="m 255.062,130.53 c -7.462,31.99 -21.767,62.112 -42.906,83.25 -21.14,21.14 -48.73,32.913 -80.72,40.376 31.99,7.462 62.112,21.736 83.25,42.875 21.14,21.14 32.914,48.764 40.376,80.75 7.463,-31.986 19.204,-59.61 40.344,-80.75 21.14,-21.138 51.262,-35.412 83.25,-42.874 -32.236,-7.428 -59.455,-19.11 -80.72,-40.375 -21.262,-21.263 -35.446,-51.013 -42.873,-83.25 z"
     id="path4147" />
  <path
     d="m 255.15544,174.42849 c 44.05606,0 79.79224,35.73618 79.79224,79.79225 0,44.05176 -35.73403,79.79009 -79.79009,79.79009 -44.05392,0 -79.79224,-35.73833 -79.79224,-79.79224 0,-44.06036 35.74262,-79.79439 79.79439,-79.79439 z"
     id="path6"
     style="fill:#ffffff;stroke-width:1"
     inkscape:connector-curvature="0" />
</svg>
