<?xml version="1.0" encoding="UTF-8" standalone="no"?>
<svg
   xmlns:dc="http://purl.org/dc/elements/1.1/"
   xmlns:cc="http://creativecommons.org/ns#"
   xmlns:rdf="http://www.w3.org/1999/02/22-rdf-syntax-ns#"
   xmlns:svg="http://www.w3.org/2000/svg"
   xmlns="http://www.w3.org/2000/svg"
   xmlns:sodipodi="http://sodipodi.sourceforge.net/DTD/sodipodi-0.dtd"
   xmlns:inkscape="http://www.inkscape.org/namespaces/inkscape"
   viewBox="0 0 512 512"
   id="svg2"
   version="1.1"
   inkscape:version="0.91+devel r13869"
   sodipodi:docname="virtue.svg">
  <metadata
     id="metadata12">
    <rdf:RDF>
      <cc:Work
         rdf:about="">
        <dc:format>image/svg+xml</dc:format>
        <dc:type
           rdf:resource="http://purl.org/dc/dcmitype/StillImage" />
        <dc:title></dc:title>
      </cc:Work>
    </rdf:RDF>
  </metadata>
  <defs
     id="defs10" />
  <sodipodi:namedview
     pagecolor="#ffffff"
     bordercolor="#666666"
     borderopacity="1"
     objecttolerance="10"
     gridtolerance="10"
     guidetolerance="10"
     inkscape:pageopacity="0"
     inkscape:pageshadow="2"
     inkscape:window-width="640"
     inkscape:window-height="480"
     id="namedview8"
     showgrid="false"
     inkscape:zoom="1.1347656"
     inkscape:cx="256"
     inkscape:cy="256"
     inkscape:current-layer="svg2" />
  <path
     d="M0 0h512v512H0z"
     fill="#000"
     stroke="#fff"
     stroke-width="0"
     id="path4"
     style="fill:#a77337;fill-opacity:1;stroke:none" />
  <path
     style="fill:#fcf794;fill-opacity:1"
     d="M 254.21289 20.587891 C 240.51238 20.70289 226.63449 22.030549 212.70312 24.65625 C 180.49027 30.727539 151.03981 43.188935 125.38477 60.449219 C 115.37774 51.530343 101.51929 47.170668 87.326172 49.845703 C 63.0378 54.423433 47.029507 77.825882 51.607422 102.11523 C 53.155063 110.32666 56.88807 117.58586 62.044922 123.42578 C 28.044899 173.2399 12.944977 235.95595 24.945312 299.62695 C 48.952092 427.00136 172.41075 510.6861 299.7832 486.67969 C 427.15527 462.67131 510.97553 339.92325 486.96875 212.54883 C 465.58754 99.105118 365.77417 19.651466 254.21289 20.587891 z M 254.53906 39.855469 C 357.31878 38.837883 448.95103 111.39294 468.66602 215.99609 C 490.80215 333.44525 413.78019 446.23943 296.33398 468.375 C 178.88678 490.51076 65.384174 413.62689 43.248047 296.17773 C 32.215266 237.64035 45.99523 180.2231 77.128906 134.60547 C 85.223067 138.28295 94.499889 139.56899 103.90234 137.79688 C 128.19072 133.21914 144.16757 109.82157 139.58984 85.533203 C 138.9503 82.139945 137.95006 78.917904 136.625 75.882812 C 160.06696 60.367612 186.94377 49.166074 216.28125 43.636719 L 216.28125 43.634766 C 229.12704 41.213667 241.91699 39.980435 254.53906 39.855469 z M 257.78125 91.738281 C 173.92912 90.868979 100.85593 153.97703 91.269531 239.0332 C 81.044147 329.75878 146.85158 411.74934 237.57617 421.97461 C 272.47521 425.90797 306.08595 418.6626 334.80273 403.08984 C 341.41412 408.09177 349.41001 411.43359 358.24805 412.42969 C 384.47798 415.38598 408.15308 396.53462 411.10938 370.30469 C 412.53881 357.62199 408.86329 345.53241 401.72461 336.10156 C 411.48877 318.01433 418.02284 297.80159 420.46484 276.13477 C 430.69023 185.40918 365.40428 103.00457 274.67969 92.779297 L 274.67969 92.777344 C 269.00934 92.138257 263.37139 91.796235 257.78125 91.738281 z M 257.51172 110.84961 C 262.4806 110.90654 267.49404 111.21286 272.53711 111.78125 L 272.53711 111.7832 C 353.22623 120.87741 411.05124 193.3597 401.95703 274.04883 C 399.95978 291.76964 394.89484 308.39772 387.36719 323.44531 C 381.87519 320.29742 375.64377 318.19353 368.95312 317.43945 C 342.72319 314.48316 319.07543 333.36577 316.11914 359.5957 C 314.93309 370.11908 317.27162 380.21657 322.17383 388.74023 C 297.56457 401.1461 269.16227 406.75998 239.66602 403.43555 C 158.97689 394.34134 100.71243 321.81022 109.80664 241.12109 C 118.33246 165.47503 182.97852 109.99559 257.51172 110.84961 z M 255.0625 130.53125 C 247.60038 162.52056 233.29484 192.6417 212.15625 213.7793 C 191.01625 234.9193 163.42555 246.69325 131.43555 254.15625 C 163.42555 261.61825 193.54755 275.89225 214.68555 297.03125 C 235.82555 318.17125 247.6005 345.79525 255.0625 377.78125 C 262.5255 345.79525 274.26625 318.17125 295.40625 297.03125 C 316.54625 275.89325 346.66825 261.61825 378.65625 254.15625 C 346.42025 246.72825 319.20055 235.04625 297.93555 213.78125 C 276.67355 192.51825 262.4895 162.76825 255.0625 130.53125 z M 255.1582 217.0918 L 255.15625 217.09375 C 275.65425 217.09375 292.28125 233.72075 292.28125 254.21875 C 292.28125 274.71475 275.65425 291.34375 255.15625 291.34375 C 234.65925 291.34375 218.03125 274.71575 218.03125 254.21875 C 218.03125 233.71875 234.6622 217.0918 255.1582 217.0918 z "
     id="path4149" />
</svg>
